<?xml version="1.0" encoding="utf-8" ?>
<svg baseProfile="full" height="768px" version="1.1" width="1024px" xmlns="http://www.w3.org/2000/svg" xmlns:ev="http://www.w3.org/2001/xml-events" xmlns:xlink="http://www.w3.org/1999/xlink"><defs /><rect fill="#dfe6e9" height="100%" width="100%" x="0" y="0" /><text fill="#2d3436" stroke-opacity="50" stroke-width="50" style="font-size:150px; font-family:Arial" x="100" y="180">Snubby Land</text><rect fill="#636e72" height="100px" rx="20px" ry="20px" width="700px" x="156" y="220" /><rect fill="#b2bec3" height="80.0" rx="20px" ry="20px" width="680.0px" x="166.0" y="230.0" /><text fill="#2d3436" stroke-opacity="50" stroke-width="50" style="font-size:50px; font-family:Arial" x="246.0" y="300.0">ONE PLAYER OFFLINE</text><rect fill="#636e72" height="100px" rx="20px" ry="20px" width="700px" x="156" y="340" /><rect fill="#b2bec3" height="80.0" rx="20px" ry="20px" width="680.0px" x="166.0" y="350.0" /><text fill="#2d3436" stroke-opacity="50" stroke-width="50" style="font-size:50px; font-family:Arial" x="246.0" y="420.0">TWO PLAYER ONLINE</text><rect fill="#636e72" height="100px" rx="20px" ry="20px" width="700px" x="156" y="460" /><rect fill="#b2bec3" height="80.0" rx="20px" ry="20px" width="680.0px" x="166.0" y="470.0" /><text fill="#2d3436" stroke-opacity="50" stroke-width="50" style="font-size:50px; font-family:Arial" x="246.0" y="540.0">GENETIC ALGORITHM</text><rect fill="#636e72" height="100px" rx="20px" ry="20px" width="700px" x="156" y="580" /><rect fill="#b2bec3" height="80.0" rx="20px" ry="20px" width="680.0px" x="166.0" y="590.0" /><text fill="#2d3436" stroke-opacity="50" stroke-width="50" style="font-size:50px; font-family:Arial" x="246.0" y="660.0">CREATE NEW LEVEL</text><text fill="#2d3436" stroke-opacity="50" stroke-width="30" style="font-size:20px; font-family:Arial" x="0" y="40">ID :</text><text fill="#2d3436" stroke-opacity="50" stroke-width="30" style="font-size:20px; font-family:Arial" x="120" y="40">STATUS :</text><text fill="#2d3436" stroke-opacity="50" stroke-width="30" style="font-size:20px; font-family:Arial" x="300" y="40">ONLINE PLAYERS :</text><text fill="#2d3436" stroke-opacity="50" stroke-width="30" style="font-size:20px; font-family:Arial" x="580" y="40">MUSIC :</text><text fill="#2d3436" stroke-opacity="50" stroke-width="30" style="font-size:20px; font-family:Arial" x="750" y="40">REACTION SOUND :</text></svg>